<?xml version="1.0" encoding="UTF-8" standalone="no"?>
<!DOCTYPE svg PUBLIC "-//W3C//DTD SVG 1.1//EN" "http://www.w3.org/Graphics/SVG/1.1/DTD/svg11.dtd">
<svg width="100%" height="100%" viewBox="0 0 200 100" version="1.1" xmlns="http://www.w3.org/2000/svg" xmlns:xlink="http://www.w3.org/1999/xlink" xml:space="preserve" style="fill-rule:evenodd;clip-rule:evenodd;stroke-linejoin:round;stroke-miterlimit:1.41421;">
    <g>
        <g transform="matrix(2.01054,0,0,2.01054,103.08,38.3752)">
            <path d="M0.709,-6.108L1.973,-6.108L1.973,-4.926L1.997,-4.926C2.036,-5.092 2.113,-5.253 2.227,-5.411C2.341,-5.568 2.479,-5.712 2.64,-5.842C2.802,-5.972 2.981,-6.076 3.178,-6.155C3.375,-6.234 3.576,-6.273 3.78,-6.273C3.938,-6.273 4.046,-6.269 4.105,-6.261C4.164,-6.254 4.225,-6.246 4.288,-6.238L4.288,-4.938C4.194,-4.954 4.097,-4.968 3.999,-4.98C3.901,-4.991 3.804,-4.997 3.71,-4.997C3.481,-4.997 3.267,-4.952 3.066,-4.861C2.865,-4.771 2.69,-4.637 2.54,-4.46C2.39,-4.283 2.272,-4.064 2.186,-3.804C2.099,-3.544 2.056,-3.245 2.056,-2.906L2.056,0L0.709,0L0.709,-6.108Z" style="fill:rgb(115,115,115);fill-rule:nonzero;"/>
            <path d="M4.903,-8.435L6.25,-8.435L6.25,-7.159L4.903,-7.159L4.903,-8.435ZM4.903,-6.108L6.25,-6.108L6.25,0L4.903,0L4.903,-6.108Z" style="fill:rgb(115,115,115);fill-rule:nonzero;"/>
            <path d="M10.514,0.165C10.026,0.165 9.591,0.085 9.209,-0.077C8.827,-0.238 8.504,-0.461 8.24,-0.744C7.976,-1.028 7.776,-1.366 7.638,-1.76C7.5,-2.154 7.431,-2.587 7.431,-3.06C7.431,-3.525 7.5,-3.954 7.638,-4.348C7.776,-4.741 7.976,-5.08 8.24,-5.364C8.504,-5.647 8.827,-5.87 9.209,-6.031C9.591,-6.193 10.026,-6.273 10.514,-6.273C11.003,-6.273 11.438,-6.193 11.82,-6.031C12.202,-5.87 12.525,-5.647 12.789,-5.364C13.053,-5.08 13.253,-4.741 13.391,-4.348C13.529,-3.954 13.598,-3.525 13.598,-3.06C13.598,-2.587 13.529,-2.154 13.391,-1.76C13.253,-1.366 13.053,-1.028 12.789,-0.744C12.525,-0.461 12.202,-0.238 11.82,-0.077C11.438,0.085 11.003,0.165 10.514,0.165ZM10.514,-0.898C10.814,-0.898 11.074,-0.961 11.294,-1.087C11.515,-1.213 11.696,-1.378 11.838,-1.583C11.979,-1.788 12.084,-2.018 12.151,-2.274C12.218,-2.53 12.251,-2.792 12.251,-3.06C12.251,-3.32 12.218,-3.58 12.151,-3.84C12.084,-4.099 11.979,-4.33 11.838,-4.531C11.696,-4.732 11.515,-4.895 11.294,-5.021C11.074,-5.147 10.814,-5.21 10.514,-5.21C10.215,-5.21 9.955,-5.147 9.735,-5.021C9.514,-4.895 9.333,-4.732 9.191,-4.531C9.05,-4.33 8.945,-4.099 8.878,-3.84C8.811,-3.58 8.778,-3.32 8.778,-3.06C8.778,-2.792 8.811,-2.53 8.878,-2.274C8.945,-2.018 9.05,-1.788 9.191,-1.583C9.333,-1.378 9.514,-1.213 9.735,-1.087C9.955,-0.961 10.215,-0.898 10.514,-0.898Z" style="fill:rgb(115,115,115);fill-rule:nonzero;"/>
            <path d="M14.106,-6.108L15.122,-6.108L15.122,-7.939L16.469,-7.939L16.469,-6.108L17.686,-6.108L17.686,-5.104L16.469,-5.104L16.469,-1.843C16.469,-1.701 16.475,-1.579 16.486,-1.477C16.498,-1.374 16.526,-1.288 16.569,-1.217C16.612,-1.146 16.677,-1.093 16.764,-1.057C16.851,-1.022 16.969,-1.004 17.118,-1.004C17.213,-1.004 17.308,-1.006 17.402,-1.01C17.497,-1.014 17.591,-1.028 17.686,-1.051L17.686,-0.012C17.536,0.004 17.39,0.02 17.248,0.035C17.107,0.051 16.961,0.059 16.811,0.059C16.457,0.059 16.171,0.026 15.955,-0.041C15.738,-0.108 15.569,-0.207 15.447,-0.337C15.325,-0.467 15.242,-0.63 15.199,-0.827C15.155,-1.024 15.13,-1.248 15.122,-1.5L15.122,-5.104L14.106,-5.104L14.106,-6.108Z" style="fill:rgb(115,115,115);fill-rule:nonzero;"/>
        </g>
        <g transform="matrix(3.69176,0,0,3.69176,101.142,68.8254)">
            <path d="M6.456,-0.324C6.456,0.612 6.194,1.31 5.67,1.77C5.146,2.23 4.392,2.46 3.408,2.46C3.096,2.46 2.782,2.428 2.466,2.364C2.15,2.3 1.862,2.192 1.602,2.04C1.342,1.888 1.124,1.688 0.948,1.44C0.772,1.192 0.668,0.888 0.636,0.528L2.004,0.528C2.044,0.72 2.112,0.876 2.208,0.996C2.304,1.116 2.418,1.21 2.55,1.278C2.682,1.346 2.828,1.39 2.988,1.41C3.148,1.43 3.316,1.44 3.492,1.44C4.044,1.44 4.448,1.304 4.704,1.032C4.96,0.76 5.088,0.368 5.088,-0.144L5.088,-1.092L5.064,-1.092C4.872,-0.748 4.61,-0.48 4.278,-0.288C3.946,-0.096 3.588,0 3.204,0C2.708,0 2.286,-0.086 1.938,-0.258C1.59,-0.43 1.302,-0.666 1.074,-0.966C0.846,-1.266 0.68,-1.612 0.576,-2.004C0.472,-2.396 0.42,-2.816 0.42,-3.264C0.42,-3.68 0.484,-4.076 0.612,-4.452C0.74,-4.828 0.924,-5.158 1.164,-5.442C1.404,-5.726 1.698,-5.952 2.046,-6.12C2.394,-6.288 2.788,-6.372 3.228,-6.372C3.62,-6.372 3.98,-6.29 4.308,-6.126C4.636,-5.962 4.888,-5.704 5.064,-5.352L5.088,-5.352L5.088,-6.204L6.456,-6.204L6.456,-0.324ZM3.42,-1.08C3.724,-1.08 3.982,-1.142 4.194,-1.266C4.406,-1.39 4.578,-1.554 4.71,-1.758C4.842,-1.962 4.938,-2.194 4.998,-2.454C5.058,-2.714 5.088,-2.976 5.088,-3.24C5.088,-3.504 5.056,-3.76 4.992,-4.008C4.928,-4.256 4.83,-4.476 4.698,-4.668C4.566,-4.86 4.394,-5.012 4.182,-5.124C3.97,-5.236 3.716,-5.292 3.42,-5.292C3.116,-5.292 2.86,-5.228 2.652,-5.1C2.444,-4.972 2.276,-4.806 2.148,-4.602C2.02,-4.398 1.928,-4.166 1.872,-3.906C1.816,-3.646 1.788,-3.388 1.788,-3.132C1.788,-2.876 1.82,-2.626 1.884,-2.382C1.948,-2.138 2.046,-1.92 2.178,-1.728C2.31,-1.536 2.478,-1.38 2.682,-1.26C2.886,-1.14 3.132,-1.08 3.42,-1.08Z" style="fill:rgb(255,0,68);fill-rule:nonzero;"/>
            <path d="M7.836,-6.204L9.12,-6.204L9.12,-5.004L9.144,-5.004C9.184,-5.172 9.262,-5.336 9.378,-5.496C9.494,-5.656 9.634,-5.802 9.798,-5.934C9.962,-6.066 10.144,-6.172 10.344,-6.252C10.544,-6.332 10.748,-6.372 10.956,-6.372C11.116,-6.372 11.226,-6.368 11.286,-6.36C11.346,-6.352 11.408,-6.344 11.472,-6.336L11.472,-5.016C11.376,-5.032 11.278,-5.046 11.178,-5.058C11.078,-5.07 10.98,-5.076 10.884,-5.076C10.652,-5.076 10.434,-5.03 10.23,-4.938C10.026,-4.846 9.848,-4.71 9.696,-4.53C9.544,-4.35 9.424,-4.128 9.336,-3.864C9.248,-3.6 9.204,-3.296 9.204,-2.952L9.204,0L7.836,0L7.836,-6.204Z" style="fill:rgb(255,0,68);fill-rule:nonzero;"/>
            <path d="M12.096,-8.568L13.464,-8.568L13.464,-7.272L12.096,-7.272L12.096,-8.568ZM12.096,-6.204L13.464,-6.204L13.464,0L12.096,0L12.096,-6.204Z" style="fill:rgb(255,0,68);fill-rule:nonzero;"/>
            <path d="M20.796,0L19.5,0L19.5,-0.84L19.476,-0.84C19.292,-0.48 19.024,-0.222 18.672,-0.066C18.32,0.09 17.948,0.168 17.556,0.168C17.068,0.168 16.642,0.082 16.278,-0.09C15.914,-0.262 15.612,-0.496 15.372,-0.792C15.132,-1.088 14.952,-1.438 14.832,-1.842C14.712,-2.246 14.652,-2.68 14.652,-3.144C14.652,-3.704 14.728,-4.188 14.88,-4.596C15.032,-5.004 15.234,-5.34 15.486,-5.604C15.738,-5.868 16.026,-6.062 16.35,-6.186C16.674,-6.31 17.004,-6.372 17.34,-6.372C17.532,-6.372 17.728,-6.354 17.928,-6.318C18.128,-6.282 18.32,-6.224 18.504,-6.144C18.688,-6.064 18.858,-5.962 19.014,-5.838C19.17,-5.714 19.3,-5.568 19.404,-5.4L19.428,-5.4L19.428,-8.568L20.796,-8.568L20.796,0ZM16.02,-3.036C16.02,-2.772 16.054,-2.512 16.122,-2.256C16.19,-2 16.294,-1.772 16.434,-1.572C16.574,-1.372 16.752,-1.212 16.968,-1.092C17.184,-0.972 17.44,-0.912 17.736,-0.912C18.04,-0.912 18.302,-0.976 18.522,-1.104C18.742,-1.232 18.922,-1.4 19.062,-1.608C19.202,-1.816 19.306,-2.05 19.374,-2.31C19.442,-2.57 19.476,-2.836 19.476,-3.108C19.476,-3.796 19.322,-4.332 19.014,-4.716C18.706,-5.1 18.288,-5.292 17.76,-5.292C17.44,-5.292 17.17,-5.226 16.95,-5.094C16.73,-4.962 16.55,-4.79 16.41,-4.578C16.27,-4.366 16.17,-4.126 16.11,-3.858C16.05,-3.59 16.02,-3.316 16.02,-3.036Z" style="fill:rgb(255,0,68);fill-rule:nonzero;"/>
        </g>
    </g>
    <g transform="matrix(1,0,0,1,10.9401,13.2005)">
        <rect x="0.008" y="39.367" width="16.258" height="15.621" style="fill:rgb(255,0,68);"/>
        <rect x="58.332" y="20.137" width="16.66" height="15.621" style="fill:rgb(255,0,68);"/>
        <rect x="19.875" y="0" width="15.621" height="16.531" style="fill:rgb(255,0,68);"/>
        <rect x="0.008" y="20.137" width="16.258" height="15.621" style="fill:rgb(255,0,68);"/>
        <rect x="0.008" y="0" width="16.258" height="16.531" style="fill:rgb(255,0,68);"/>
        <rect x="58.332" y="39.367" width="16.66" height="15.621" style="fill:rgb(255,0,68);"/>
        <rect x="19.875" y="20.137" width="15.621" height="15.621" style="fill:rgb(255,0,68);"/>
        <rect x="0.008" y="58.594" width="16.258" height="16.406" style="fill:rgb(255,0,68);"/>
        <rect x="39.102" y="0" width="15.625" height="16.531" style="fill:rgb(255,0,68);"/>
        <rect x="58.332" y="58.594" width="16.66" height="16.406" style="fill:rgb(255,0,68);"/>
        <rect x="39.102" y="39.367" width="15.625" height="15.621" style="fill:rgb(255,0,68);"/>
        <rect x="39.102" y="20.137" width="15.625" height="15.621" style="fill:rgb(255,0,68);"/>
        <rect x="39.102" y="58.594" width="15.625" height="16.406" style="fill:rgb(255,0,68);"/>
        <rect x="19.875" y="39.367" width="15.621" height="15.621" style="fill:rgb(255,0,68);"/>
        <rect x="58.332" y="0" width="16.66" height="16.531" style="fill:rgb(255,0,68);"/>
        <rect x="19.875" y="58.594" width="15.621" height="16.406" style="fill:rgb(255,0,68);"/>
    </g>
    <g transform="matrix(1.59757,0,0,1.59757,-89.2541,3.41961)">
        <path d="M168.619,14.612L170.251,14.612C170.251,14.388 170.273,14.162 170.317,13.934C170.361,13.706 170.435,13.498 170.539,13.31C170.643,13.122 170.781,12.97 170.953,12.854C171.125,12.738 171.335,12.68 171.583,12.68C171.951,12.68 172.253,12.794 172.489,13.022C172.725,13.25 172.843,13.568 172.843,13.976C172.843,14.232 172.785,14.46 172.669,14.66C172.553,14.86 172.409,15.04 172.237,15.2C172.065,15.36 171.875,15.506 171.667,15.638C171.459,15.77 171.263,15.9 171.079,16.028C170.719,16.276 170.377,16.52 170.053,16.76C169.729,17 169.447,17.262 169.207,17.546C168.967,17.83 168.777,18.152 168.637,18.512C168.497,18.872 168.427,19.296 168.427,19.784L174.595,19.784L174.595,18.32L170.623,18.32C170.831,18.032 171.071,17.78 171.343,17.564C171.615,17.348 171.895,17.146 172.183,16.958C172.471,16.77 172.757,16.58 173.041,16.388C173.325,16.196 173.579,15.982 173.803,15.746C174.027,15.51 174.207,15.24 174.343,14.936C174.479,14.632 174.547,14.268 174.547,13.844C174.547,13.436 174.469,13.068 174.313,12.74C174.157,12.412 173.947,12.136 173.683,11.912C173.419,11.688 173.113,11.516 172.765,11.396C172.417,11.276 172.051,11.216 171.667,11.216C171.163,11.216 170.717,11.302 170.329,11.474C169.941,11.646 169.619,11.886 169.363,12.194C169.107,12.502 168.915,12.862 168.787,13.274C168.659,13.686 168.603,14.132 168.619,14.612Z" style="fill:rgb(255,0,68);fill-rule:nonzero;"/>
    </g>
</svg>
